#!OML:ASF E:\acrobat2\Project_11_07_03\Capture day 1\Session 1\Acrobat.ASF
:FULLY-SPECIFIED
:DEGREES
53
root 12.0996 18.312 27.5897 -174.665 0.446645 -179.212
lowerback -8.61405 0.848325 0.36706
upperback -4.91525 1.57813 -1.49086
thorax -0.207277 0.962462 -1.61279
lowerneck -1.876 -2.01652 -1.29802
upperneck -0.201119 -2.75628 4.60889
head 0.339716 -1.38783 1.61875
rclavicle 2.98177e-016 2.38542e-015
rhumerus -46.9489 15.8382 -100.223
rradius 27.1993
rwrist 4.78222
rhand -4.53368 -43.5511
rfingers 7.12502
rthumb 21.2414 -72.4072
lclavicle 2.98177e-016 2.38542e-015
lhumerus -39.1249 -21.7836 96.6042
lradius 18.7442
lwrist 13.4795
lhand -8.74569 -9.41434
lfingers 7.12502
lthumb 17.1912 19.8452
rfemur 2.62891 5.73905 23.5975
rtibia 1.62265
rfoot -17.6882 -14.2946
rtoes 8.77914
lfemur 0.435325 -1.56777 -18.7018
ltibia 4.08426
lfoot -5.77862 -7.33729
ltoes 33.3089
54
root 12.1012 18.31 27.5894 -174.623 0.450032 -179.129
lowerback -8.67635 0.860376 0.437589
upperback -4.90372 1.58857 -1.47317
thorax -0.159724 0.966564 -1.63166
lowerneck -1.90203 -2.02979 -1.32006
upperneck -0.227647 -2.77332 4.62798
head 0.337118 -1.39653 1.62838
rclavicle -5.36719e-015 -1.11319e-014
rhumerus -46.9398 16.0096 -100.377
rradius 27.3593
rwrist 4.55372
rhand -4.44221 -43.3044
rfingers 7.12502
rthumb 21.3293 -72.1506
lclavicle -5.36719e-015 -1.11319e-014
lhumerus -39.0696 -21.8362 96.6066
lradius 18.7807
lwrist 13.4858
lhand -8.76654 -9.312
lfingers 7.12502
lthumb 17.1712 19.9493
rfemur 2.57427 5.84217 23.7215
rtibia 1.65603
rfoot -17.8165 -14.4292
rtoes 8.75263
lfemur 0.354236 -1.52634 -18.579
ltibia 4.15597
lfoot -5.88155 -7.3591
ltoes 32.3633
55
root 12.1038 18.3084 27.589 -174.562 0.467641 -179.043
lowerback -8.74062 0.878247 0.498856
upperback -4.92547 1.61179 -1.46451
thorax -0.145141 0.978808 -1.6541
lowerneck -1.87836 -2.03526 -1.33684
upperneck -0.214444 -2.78139 4.65992
head 0.338314 -1.40073 1.64163
rclavicle -1.2921e-015 1.11319e-014
rhumerus -46.9722 16.1861 -100.582
rradius 27.4235
rwrist 4.34086
rhand -4.40595 -43.0174
rfingers 7.12502
rthumb 21.3641 -71.8597
lclavicle -1.2921e-015 1.11319e-014
lhumerus -39.0693 -21.8802 96.6083
lradius 18.8047
lwrist 13.5679
lhand -8.7264 -9.30326
lfingers 7.12502
lthumb 17.2098 19.9547
rfemur 2.47613 5.94183 23.8439
rtibia 1.73025
rfoot -17.9043 -14.5459
rtoes 8.69246
lfemur 0.272134 -1.52813 -18.4639
ltibia 4.19423
lfoot -5.95144 -7.31006
ltoes 32.1105
56
root 12.1069 18.3076 27.5886 -174.533 0.469919 -179.076
lowerback -8.75767 0.878708 0.440465
upperback -4.95532 1.62206 -1.49023
thorax -0.167038 0.986784 -1.64711
lowerneck -1.85661 -2.05098 -1.32698
upperneck -0.15353 -2.80476 4.66951
head 0.354261 -1.41183 1.64266
rclavicle -1.0635e-014 1.03368e-014
rhumerus -47.0374 16.3708 -100.853
rradius 27.4684
rwrist 4.19284
rhand -4.44671 -43.0822
rfingers 7.12502
rthumb 21.3249 -71.9289
lclavicle -1.0635e-014 1.03368e-014
lhumerus -39.1004 -21.9021 96.6137
lradius 18.8171
lwrist 13.6028
lhand -8.65564 -9.41182
lfingers 7.12502
lthumb 17.2779 19.8401
rfemur 2.42856 5.94064 23.8098
rtibia 1.75612
rfoot -17.8536 -14.5255
rtoes 8.54209
lfemur 0.2511 -1.53532 -18.4893
ltibia 4.17224
lfoot -5.91463 -7.28263
ltoes 32.32
57
root 12.1094 18.3075 27.5872 -174.505 0.424336 -179.155
lowerback -8.79516 0.850877 0.343101
upperback -4.96713 1.5966 -1.5172
thorax -0.161005 0.977319 -1.62181
lowerneck -1.82621 -2.04397 -1.40741
upperneck -0.16604 -2.79497 4.75529
head 0.347804 -1.40753 1.68471
rclavicle 9.83984e-015 1.59028e-015
rhumerus -47.083 16.5742 -101.106
rradius 27.5521
rwrist 4.09683
rhand -4.5181 -43.1995
rfingers 7.12502
rthumb 21.2564 -72.0539
lclavicle 9.83984e-015 1.59028e-015
lhumerus -39.1041 -21.928 96.6422
lradius 18.8541
lwrist 13.6454
lhand -8.68139 -9.30617
lfingers 7.12502
lthumb 17.2531 19.948
rfemur 2.42245 5.94479 23.7256
rtibia 1.72237
rfoot -17.86 -14.6201
rtoes 8.23322
lfemur 0.22908 -1.53749 -18.559
ltibia 4.15171
lfoot -5.82175 -7.3264
ltoes 32.7071
58
root 12.1108 18.3077 27.5857 -174.497 0.386296 -179.159
lowerback -8.82194 0.828274 0.31585
upperback -4.96304 1.56953 -1.52484
thorax -0.143312 0.964629 -1.61604
lowerneck -1.82124 -2.0288 -1.45568
upperneck -0.187529 -2.77591 4.85234
head 0.342194 -1.39889 1.72469
rclavicle 2.85256e-014 -4.45278e-014
rhumerus -47.1515 16.7761 -101.353
rradius 27.7039
rwrist 3.99906
rhand -4.78705 -43.1577
rfingers 7.12502
rthumb 20.998 -72.041
lclavicle 2.85256e-014 -4.45278e-014
lhumerus -39.0597 -21.8873 96.6004
lradius 18.877
lwrist 13.6035
lhand -8.65797 -9.16901
lfingers 7.12502
lthumb 17.2757 20.0831
rfemur 2.42042 5.97655 23.7345
rtibia 1.7342
rfoot -17.9371 -14.5852
rtoes 8.29739
lfemur 0.220236 -1.64713 -18.57
ltibia 4.16134
lfoot -5.82023 -7.29397
ltoes 33.4976
59
root 12.1128 18.3083 27.5852 -174.51 0.372538 -179.144
lowerback -8.79584 0.812543 0.286686
upperback -4.96638 1.55037 -1.52
thorax -0.16243 0.95548 -1.59696
lowerneck -1.88052 -2.01196 -1.41457
upperneck -0.109607 -2.75706 4.84017
head 0.374839 -1.38784 1.71283
rclavicle -4.77083e-015 -1.59028e-015
rhumerus -47.2172 16.9462 -101.586
rradius 27.8611
rwrist 3.88205
rhand -5.15536 -43.0794
rfingers 7.12502
rthumb 20.6441 -72.0015
lclavicle -4.77083e-015 -1.59028e-015
lhumerus -38.9879 -21.6627 96.4651
lradius 18.8496
lwrist 13.3348
lhand -8.53935 -9.28885
lfingers 7.12502
lthumb 17.3898 19.9532
rfemur 2.43055 6.01327 23.7695
rtibia 1.75645
rfoot -17.9926 -14.4997
rtoes 8.59778
lfemur 0.231523 -1.70978 -18.5518
ltibia 4.17398
lfoot -5.78999 -7.26296
ltoes 34.1484
